# xmcd
#
# Track frame offsets:
#	150
#	20027
#	48383
#	70497
#	92170
#	110409
#	134705
#	156876
#	178271
#	199722
#
# Disc length: 2944 seconds
#
# Revision: 12
# Processed by: cddbd v1.5.2PL0 Copyright (c) Steve Scherf et al.
# Submitted via: Jack! The Knife 20 Magnifico
#
DISCID=950b7e0a
DTITLE=Pooh - Oasi
DYEAR=1988
DGENRE=Pop
TTITLE0=Senza Frontiere
TTITLE1=Che Vuoi Che Sia
TTITLE2=Io Da Solo
TTITLE3=Ti Dirò
TTITLE4=La Ragazza Con Gli Occhi Di Sole
TTITLE5=Linea Calda
TTITLE6=Niente A Parte L'amore
TTITLE7=Stare Bene Fa Bene
TTITLE8=Due Donne
TTITLE9=Nell'erba, Nell'acqua, Nel Vento
EXTD=Pooh
EXTT0=Facchinetti, Negrini
EXTT1=Facchinetti, D'Orazio
EXTT2=Facchinetti, Negrini
EXTT3=Canzian, Negrini
EXTT4=Battaglia, D'Orazio
EXTT5=Canzian, Negrini
EXTT6=Facchinetti, Negrini
EXTT7=Battaglia, Negrini
EXTT8=Battaglia, Negrini
EXTT9=Facchinetti, Negrini
PLAYORDER=
